<?xml version="1.0" encoding="UTF-8" standalone="no"?>
<!DOCTYPE svg PUBLIC "-//W3C//DTD SVG 1.1//EN" "http://www.w3.org/Graphics/SVG/1.1/DTD/svg11.dtd">
<!-- Generated by Microsoft Visio, SVG Export Memory-Queue.svg Page-1 -->
<svg xmlns="http://www.w3.org/2000/svg" xmlns:xlink="http://www.w3.org/1999/xlink" xmlns:ev="http://www.w3.org/2001/xml-events"
		xmlns:v="http://schemas.microsoft.com/visio/2003/SVGExtensions/" width="9.89536in" height="6.15521in"
		viewBox="0 0 712.466 443.175" xml:space="preserve" color-interpolation-filters="sRGB" class="st19">
	<v:documentProperties v:langID="1033" v:viewMarkup="false"/>

	<style type="text/css">
	<![CDATA[
		.st1 {fill:url(#grad0-4);stroke:#000000;stroke-linecap:round;stroke-linejoin:round;stroke-width:1.25}
		.st2 {fill:#000000;font-family:Fira Code;font-size:1.5em}
		.st3 {fill:url(#grad0-9);stroke:#000000;stroke-linecap:round;stroke-linejoin:round;stroke-width:1.25}
		.st4 {fill:none;marker-end:url(#mrkr5-14);stroke:none;stroke-linecap:round;stroke-linejoin:round;stroke-width:1.5}
		.st5 {fill:#3f3f3f;fill-opacity:1;stroke:#3f3f3f;stroke-opacity:1;stroke-width:0.37313432835821}
		.st6 {fill:#01a916;font-family:Fira Code;font-size:1.5em}
		.st7 {fill:#9c4a09;font-family:Fira Code;font-size:1.5em}
		.st8 {fill:url(#grad0-24);marker-end:url(#mrkr5-14);stroke:#3f3f3f;stroke-linecap:round;stroke-linejoin:round;stroke-width:1.5}
		.st9 {fill:url(#grad0-29);marker-end:url(#mrkr5-14);stroke:#3f3f3f;stroke-linecap:round;stroke-linejoin:round;stroke-width:1.5}
		.st10 {fill:#3f3f3f;font-family:Fira Code;font-size:1.5em}
		.st11 {fill:url(#grad0-62);marker-end:url(#mrkr5-14);stroke:#3f3f3f;stroke-linecap:round;stroke-linejoin:round;stroke-width:1.5}
		.st12 {fill:url(#grad0-67);marker-end:url(#mrkr5-14);stroke:#3f3f3f;stroke-linecap:round;stroke-linejoin:round;stroke-width:1.5}
		.st13 {fill:#205867;font-family:Fira Code;font-size:1.5em}
		.st14 {marker-end:url(#mrkr5-14);stroke:#3f3f3f;stroke-linecap:round;stroke-linejoin:round;stroke-width:1.5}
		.st15 {fill:url(#grad4-231);marker-end:url(#mrkr5-14);stroke:#3f3f3f;stroke-linecap:round;stroke-linejoin:round;stroke-width:1.5}
		.st16 {fill:url(#grad0-264);marker-end:url(#mrkr5-14);stroke:#3f3f3f;stroke-linecap:round;stroke-linejoin:round;stroke-width:1.5}
		.st17 {fill:url(#grad0-345);marker-end:url(#mrkr5-14);stroke:#3f3f3f;stroke-linecap:round;stroke-linejoin:round;stroke-width:1.5}
		.st18 {fill:#205867;font-family:Fira Code;font-size:1.5em;font-weight:bold}
		.st19 {fill:none;fill-rule:evenodd;font-size:12px;overflow:visible;stroke-linecap:square;stroke-miterlimit:3}
	]]>
	</style>

	<defs id="Patterns_And_Gradients">
		<linearGradient id="grad0-4" x1="0" y1="0" x2="1" y2="0" gradientTransform="rotate(270 0.5 0.5)">
			<stop offset="0" stop-color="#6b8539" stop-opacity="1"/>
			<stop offset="0.48" stop-color="#9fbd65" stop-opacity="1"/>
			<stop offset="1" stop-color="#c4d6a0" stop-opacity="1"/>
		</linearGradient>
		<linearGradient id="grad0-9" x1="0" y1="0" x2="1" y2="0" gradientTransform="rotate(270 0.5 0.5)">
			<stop offset="0" stop-color="#d1640c" stop-opacity="1"/>
			<stop offset="0.48" stop-color="#f59f5b" stop-opacity="1"/>
			<stop offset="1" stop-color="#f9c499" stop-opacity="1"/>
		</linearGradient>
		<linearGradient id="grad0-24" x1="0" y1="0" x2="1" y2="0" gradientTransform="rotate(90 0.5 0.5)">
			<stop offset="0" stop-color="#fefbf2" stop-opacity="1"/>
			<stop offset="0.74" stop-color="#ffe28c" stop-opacity="1"/>
			<stop offset="0.83" stop-color="#ffe28c" stop-opacity="1"/>
			<stop offset="1" stop-color="#ffecb2" stop-opacity="1"/>
		</linearGradient>
		<linearGradient id="grad0-29" x1="0" y1="0" x2="1" y2="0" gradientTransform="rotate(90 0.5 0.5)">
			<stop offset="0" stop-color="#faf9fb" stop-opacity="1"/>
			<stop offset="0.74" stop-color="#d9d1e2" stop-opacity="1"/>
			<stop offset="0.83" stop-color="#d9d1e2" stop-opacity="1"/>
			<stop offset="1" stop-color="#e5e0ec" stop-opacity="1"/>
		</linearGradient>
		<linearGradient id="grad0-62" x1="0" y1="0" x2="1" y2="0" gradientTransform="rotate(270 0.5 0.5)">
			<stop offset="0" stop-color="#3288a0" stop-opacity="1"/>
			<stop offset="0.36" stop-color="#46d3fd" stop-opacity="1"/>
			<stop offset="1" stop-color="#a8fbfb" stop-opacity="1"/>
		</linearGradient>
		<linearGradient id="grad0-67" x1="0" y1="0" x2="1" y2="0" gradientTransform="rotate(45 0.5 0.5)">
			<stop offset="0" stop-color="#ffffff" stop-opacity="1"/>
			<stop offset="0.35" stop-color="#ffffff" stop-opacity="1"/>
			<stop offset="1" stop-color="#ab9ac0" stop-opacity="1"/>
		</linearGradient>
		<radialGradient id="grad4-231" cx="0.5" cy="0" r="1.1">
			<stop offset="0" stop-color="#ffffff" stop-opacity="1"/>
			<stop offset="0.35" stop-color="#ffffff" stop-opacity="1"/>
			<stop offset="1" stop-color="#ab9ac0" stop-opacity="1"/>
		</radialGradient>
		<linearGradient id="grad0-264" x1="0" y1="0" x2="1" y2="0" gradientTransform="rotate(270 0.5 0.5)">
			<stop offset="0" stop-color="#2b768a" stop-opacity="1"/>
			<stop offset="0.48" stop-color="#46d3fd" stop-opacity="1"/>
			<stop offset="1" stop-color="#a8fbfb" stop-opacity="1"/>
		</linearGradient>
		<linearGradient id="grad0-345" x1="0" y1="0" x2="1" y2="0" gradientTransform="rotate(270 0.5 0.5)">
			<stop offset="0.35" stop-color="#3288a0" stop-opacity="1"/>
			<stop offset="0.66" stop-color="#46d3fd" stop-opacity="1"/>
			<stop offset="1" stop-color="#a8fbfb" stop-opacity="1"/>
		</linearGradient>
	</defs>
	<defs id="Markers">
		<g id="lend5">
			<path d="M 2 1 L 0 0 L 1.98117 -0.993387 C 1.67173 -0.364515 1.67301 0.372641 1.98465 1.00043 " style="stroke:none"/>
		</g>
		<marker id="mrkr5-14" class="st5" v:arrowType="5" v:arrowSize="2" v:setback="4.69" refX="-4.69" orient="auto"
				markerUnits="strokeWidth" overflow="visible">
			<use xlink:href="#lend5" transform="scale(-2.68,-2.68) "/>
		</marker>
	</defs>
	<g v:mID="0" v:index="1" v:groupContext="foregroundPage">
		<title>Page-1</title>
		<v:pageProperties v:drawingScale="0.0393701" v:pageScale="0.0393701" v:drawingUnits="24" v:shadowOffsetX="8.50394"
				v:shadowOffsetY="-8.50394"/>
		<g id="shape2-1" v:mID="2" v:groupContext="shape" transform="translate(8.98899,-334.973)">
			<title>Sheet.2</title>
			<desc>Task Sender</desc>
			<v:textBlock v:margins="rect(4,4,4,4)" v:tabSpace="42.5197"/>
			<v:textRect cx="85.0394" cy="400.655" width="170.08" height="85.0394"/>
			<rect x="0" y="358.135" width="170.079" height="85.0394" rx="11.3386" ry="11.3386" class="st1"/>
			<text x="25.64" y="406.06" class="st2" v:langID="1033"><v:paragraph v:horizAlign="1"/><v:tabList/>Task Sender</text>		</g>
		<g id="shape3-6" v:mID="3" v:groupContext="shape" transform="translate(533.398,-334.973)">
			<title>Sheet.3</title>
			<desc>Task Receiver</desc>
			<v:textBlock v:margins="rect(4,4,4,4)" v:tabSpace="42.5197"/>
			<v:textRect cx="85.0394" cy="400.655" width="170.08" height="85.0394"/>
			<rect x="0" y="358.135" width="170.079" height="85.0394" rx="11.3386" ry="11.3386" class="st3"/>
			<text x="14.84" y="406.06" class="st2" v:langID="1033"><v:paragraph v:horizAlign="1"/><v:tabList/>Task Receiver</text>		</g>
		<g id="shape4-11" v:mID="4" v:groupContext="shape" transform="translate(8.98899,-306.627)">
			<title>Sheet.4</title>
			<desc>xQueueSend()</desc>
			<v:textBlock v:margins="rect(4,4,4,4)" v:tabSpace="42.5197"/>
			<v:textRect cx="85.0394" cy="433.175" width="170.08" height="20"/>
			<rect x="0" y="423.175" width="170.079" height="20" class="st4"/>
			<text x="20.24" y="438.57" class="st6" v:langID="1033"><v:paragraph v:horizAlign="1"/><v:tabList/>xQueueSend()</text>		</g>
		<g id="shape8-16" v:mID="8" v:groupContext="shape" transform="translate(533.398,-306.627)">
			<title>Sheet.8</title>
			<desc>xQueueReceive()</desc>
			<v:textBlock v:margins="rect(4,4,4,4)" v:tabSpace="42.5197"/>
			<v:textRect cx="85.0394" cy="433.175" width="170.08" height="20"/>
			<rect x="0" y="423.175" width="170.079" height="20" class="st4"/>
			<text x="4.04" y="438.57" class="st7" v:langID="1033"><v:paragraph v:horizAlign="1"/><v:tabList/>xQueueReceive()</text>		</g>
		<g id="shape9-20" v:mID="9" v:groupContext="shape" transform="translate(221.587,-349.146)">
			<title>Sheet.9</title>
			<rect x="0" y="386.482" width="269.291" height="56.6929" rx="5.66929" ry="5.66929" class="st8"/>
		</g>
		<g id="shape10-25" v:mID="10" v:groupContext="shape" transform="translate(229.817,-356.233)">
			<title>Sheet.10</title>
			<rect x="0" y="400.655" width="27.1843" height="42.5197" rx="5.66929" ry="5.66929" class="st9"/>
		</g>
		<g id="shape11-30" v:mID="11" v:groupContext="shape" transform="translate(267.422,-356.233)">
			<title>Sheet.11</title>
			<rect x="0" y="400.655" width="27.1843" height="42.5197" rx="5.66929" ry="5.66929" class="st9"/>
		</g>
		<g id="shape12-34" v:mID="12" v:groupContext="shape" transform="translate(305.027,-356.233)">
			<title>Sheet.12</title>
			<rect x="0" y="400.655" width="27.1843" height="42.5197" rx="5.66929" ry="5.66929" class="st9"/>
		</g>
		<g id="shape13-38" v:mID="13" v:groupContext="shape" transform="translate(342.631,-356.233)">
			<title>Sheet.13</title>
			<rect x="0" y="400.655" width="27.1843" height="42.5197" rx="5.66929" ry="5.66929" class="st9"/>
		</g>
		<g id="shape14-42" v:mID="14" v:groupContext="shape" transform="translate(380.236,-356.233)">
			<title>Sheet.14</title>
			<rect x="0" y="400.655" width="27.1843" height="42.5197" rx="5.66929" ry="5.66929" class="st9"/>
		</g>
		<g id="shape15-46" v:mID="15" v:groupContext="shape" transform="translate(417.841,-356.233)">
			<title>Sheet.15</title>
			<rect x="0" y="400.655" width="27.1843" height="42.5197" rx="5.66929" ry="5.66929" class="st9"/>
		</g>
		<g id="shape16-50" v:mID="16" v:groupContext="shape" transform="translate(455.446,-356.233)">
			<title>Sheet.16</title>
			<rect x="0" y="400.655" width="27.1843" height="42.5197" rx="5.66929" ry="5.66929" class="st9"/>
		</g>
		<g id="shape19-54" v:mID="19" v:groupContext="shape" transform="translate(221.587,-414.186)">
			<title>Sheet.19</title>
			<desc>xQueueCreate()</desc>
			<v:textBlock v:margins="rect(4,4,4,4)" v:tabSpace="42.5197"/>
			<v:textRect cx="85.0394" cy="433.175" width="170.08" height="20"/>
			<rect x="0" y="423.175" width="170.079" height="20" class="st4"/>
			<text x="9.44" y="438.57" class="st10" v:langID="1033"><v:paragraph v:horizAlign="1"/><v:tabList/>xQueueCreate()  </text>		</g>
		<g id="shape53-58" v:mID="53" v:groupContext="shape" transform="translate(207.414,-37.3355)">
			<title>Sheet.53</title>
			<rect x="0" y="414.828" width="113.386" height="28.3465" rx="2.83465" ry="2.83465" class="st11"/>
		</g>
		<g id="shape21-63" v:mID="21" v:groupContext="shape" transform="translate(51.5087,-207.414)">
			<title>Sheet.21</title>
			<rect x="0" y="414.828" width="28.3465" height="28.3465" rx="2.83465" ry="2.83465" class="st12"/>
		</g>
		<g id="shape22-68" v:mID="22" v:groupContext="shape" transform="translate(23.1622,-207.414)">
			<title>Sheet.22</title>
			<rect x="0" y="414.828" width="28.3465" height="28.3465" rx="2.83465" ry="2.83465" class="st12"/>
		</g>
		<g id="shape23-72" v:mID="23" v:groupContext="shape" transform="translate(108.202,-207.414)">
			<title>Sheet.23</title>
			<rect x="0" y="414.828" width="28.3465" height="28.3465" rx="2.83465" ry="2.83465" class="st12"/>
		</g>
		<g id="shape24-76" v:mID="24" v:groupContext="shape" transform="translate(79.8551,-207.414)">
			<title>Sheet.24</title>
			<rect x="0" y="414.828" width="28.3465" height="28.3465" rx="2.83465" ry="2.83465" class="st12"/>
		</g>
		<g id="shape25-80" v:mID="25" v:groupContext="shape" transform="translate(51.5087,-179.068)">
			<title>Sheet.25</title>
			<rect x="0" y="414.828" width="28.3465" height="28.3465" rx="2.83465" ry="2.83465" class="st12"/>
		</g>
		<g id="shape26-84" v:mID="26" v:groupContext="shape" transform="translate(23.1622,-179.068)">
			<title>Sheet.26</title>
			<rect x="0" y="414.828" width="28.3465" height="28.3465" rx="2.83465" ry="2.83465" class="st12"/>
		</g>
		<g id="shape27-88" v:mID="27" v:groupContext="shape" transform="translate(108.202,-179.068)">
			<title>Sheet.27</title>
			<rect x="0" y="414.828" width="28.3465" height="28.3465" rx="2.83465" ry="2.83465" class="st12"/>
		</g>
		<g id="shape28-92" v:mID="28" v:groupContext="shape" transform="translate(79.8551,-179.068)">
			<title>Sheet.28</title>
			<rect x="0" y="414.828" width="28.3465" height="28.3465" rx="2.83465" ry="2.83465" class="st12"/>
		</g>
		<g id="shape29-96" v:mID="29" v:groupContext="shape" transform="translate(51.5087,-150.721)">
			<title>Sheet.29</title>
			<rect x="0" y="414.828" width="28.3465" height="28.3465" rx="2.83465" ry="2.83465" class="st12"/>
		</g>
		<g id="shape30-100" v:mID="30" v:groupContext="shape" transform="translate(23.1622,-150.721)">
			<title>Sheet.30</title>
			<rect x="0" y="414.828" width="28.3465" height="28.3465" rx="2.83465" ry="2.83465" class="st12"/>
		</g>
		<g id="shape31-104" v:mID="31" v:groupContext="shape" transform="translate(108.202,-150.721)">
			<title>Sheet.31</title>
			<rect x="0" y="414.828" width="28.3465" height="28.3465" rx="2.83465" ry="2.83465" class="st12"/>
		</g>
		<g id="shape32-108" v:mID="32" v:groupContext="shape" transform="translate(79.8551,-150.721)">
			<title>Sheet.32</title>
			<rect x="0" y="414.828" width="28.3465" height="28.3465" rx="2.83465" ry="2.83465" class="st12"/>
		</g>
		<g id="shape33-112" v:mID="33" v:groupContext="shape" transform="translate(51.5087,-122.375)">
			<title>Sheet.33</title>
			<rect x="0" y="414.828" width="28.3465" height="28.3465" rx="2.83465" ry="2.83465" class="st12"/>
		</g>
		<g id="shape34-116" v:mID="34" v:groupContext="shape" transform="translate(23.1622,-122.375)">
			<title>Sheet.34</title>
			<rect x="0" y="414.828" width="28.3465" height="28.3465" rx="2.83465" ry="2.83465" class="st12"/>
		</g>
		<g id="shape35-120" v:mID="35" v:groupContext="shape" transform="translate(108.202,-122.375)">
			<title>Sheet.35</title>
			<rect x="0" y="414.828" width="28.3465" height="28.3465" rx="2.83465" ry="2.83465" class="st12"/>
		</g>
		<g id="shape36-124" v:mID="36" v:groupContext="shape" transform="translate(79.8551,-122.375)">
			<title>Sheet.36</title>
			<rect x="0" y="414.828" width="28.3465" height="28.3465" rx="2.83465" ry="2.83465" class="st12"/>
		</g>
		<g id="shape37-128" v:mID="37" v:groupContext="shape" transform="translate(51.5087,-94.0284)">
			<title>Sheet.37</title>
			<rect x="0" y="414.828" width="28.3465" height="28.3465" rx="2.83465" ry="2.83465" class="st12"/>
		</g>
		<g id="shape38-132" v:mID="38" v:groupContext="shape" transform="translate(23.1622,-94.0284)">
			<title>Sheet.38</title>
			<rect x="0" y="414.828" width="28.3465" height="28.3465" rx="2.83465" ry="2.83465" class="st12"/>
		</g>
		<g id="shape39-136" v:mID="39" v:groupContext="shape" transform="translate(108.202,-94.0284)">
			<title>Sheet.39</title>
			<rect x="0" y="414.828" width="28.3465" height="28.3465" rx="2.83465" ry="2.83465" class="st12"/>
		</g>
		<g id="shape40-140" v:mID="40" v:groupContext="shape" transform="translate(79.8551,-94.0284)">
			<title>Sheet.40</title>
			<rect x="0" y="414.828" width="28.3465" height="28.3465" rx="2.83465" ry="2.83465" class="st12"/>
		</g>
		<g id="shape41-144" v:mID="41" v:groupContext="shape" transform="translate(51.5087,-65.6819)">
			<title>Sheet.41</title>
			<rect x="0" y="414.828" width="28.3465" height="28.3465" rx="2.83465" ry="2.83465" class="st12"/>
		</g>
		<g id="shape42-148" v:mID="42" v:groupContext="shape" transform="translate(23.1622,-65.6819)">
			<title>Sheet.42</title>
			<rect x="0" y="414.828" width="28.3465" height="28.3465" rx="2.83465" ry="2.83465" class="st12"/>
		</g>
		<g id="shape43-152" v:mID="43" v:groupContext="shape" transform="translate(108.202,-65.6819)">
			<title>Sheet.43</title>
			<rect x="0" y="414.828" width="28.3465" height="28.3465" rx="2.83465" ry="2.83465" class="st12"/>
		</g>
		<g id="shape44-156" v:mID="44" v:groupContext="shape" transform="translate(79.8551,-65.6819)">
			<title>Sheet.44</title>
			<rect x="0" y="414.828" width="28.3465" height="28.3465" rx="2.83465" ry="2.83465" class="st12"/>
		</g>
		<g id="shape45-160" v:mID="45" v:groupContext="shape" transform="translate(51.5087,-37.3355)">
			<title>Sheet.45</title>
			<rect x="0" y="414.828" width="28.3465" height="28.3465" rx="2.83465" ry="2.83465" class="st12"/>
		</g>
		<g id="shape46-164" v:mID="46" v:groupContext="shape" transform="translate(23.1622,-37.3355)">
			<title>Sheet.46</title>
			<rect x="0" y="414.828" width="28.3465" height="28.3465" rx="2.83465" ry="2.83465" class="st12"/>
		</g>
		<g id="shape47-168" v:mID="47" v:groupContext="shape" transform="translate(108.202,-37.3355)">
			<title>Sheet.47</title>
			<rect x="0" y="414.828" width="28.3465" height="28.3465" rx="2.83465" ry="2.83465" class="st12"/>
		</g>
		<g id="shape48-172" v:mID="48" v:groupContext="shape" transform="translate(79.8551,-37.3355)">
			<title>Sheet.48</title>
			<rect x="0" y="414.828" width="28.3465" height="28.3465" rx="2.83465" ry="2.83465" class="st12"/>
		</g>
		<g id="shape49-176" v:mID="49" v:groupContext="shape" transform="translate(51.5087,-8.98899)">
			<title>Sheet.49</title>
			<rect x="0" y="414.828" width="28.3465" height="28.3465" rx="2.83465" ry="2.83465" class="st12"/>
		</g>
		<g id="shape50-180" v:mID="50" v:groupContext="shape" transform="translate(23.1622,-8.98899)">
			<title>Sheet.50</title>
			<rect x="0" y="414.828" width="28.3465" height="28.3465" rx="2.83465" ry="2.83465" class="st12"/>
		</g>
		<g id="shape51-184" v:mID="51" v:groupContext="shape" transform="translate(108.202,-8.98899)">
			<title>Sheet.51</title>
			<rect x="0" y="414.828" width="28.3465" height="28.3465" rx="2.83465" ry="2.83465" class="st12"/>
		</g>
		<g id="shape52-188" v:mID="52" v:groupContext="shape" transform="translate(79.8551,-8.98899)">
			<title>Sheet.52</title>
			<rect x="0" y="414.828" width="28.3465" height="28.3465" rx="2.83465" ry="2.83465" class="st12"/>
		</g>
		<g id="shape55-192" v:mID="55" v:groupContext="shape" transform="translate(204.013,-63.9811)">
			<title>Sheet.55</title>
			<desc>char *</desc>
			<v:textBlock v:margins="rect(4,4,4,4)" v:tabSpace="42.5197"/>
			<v:textRect cx="49.6063" cy="433.175" width="99.22" height="20"/>
			<rect x="0" y="423.175" width="99.2126" height="20" class="st4"/>
			<text x="4" y="438.57" class="st13" v:langID="1033"><v:paragraph/><v:tabList/>char *</text>		</g>
		<g id="shape56-196" v:mID="56" v:groupContext="shape" transform="translate(207.414,-94.0284)">
			<title>Sheet.56</title>
			<rect x="0" y="414.828" width="113.386" height="28.3465" rx="2.83465" ry="2.83465" class="st11"/>
		</g>
		<g id="shape57-200" v:mID="57" v:groupContext="shape" transform="translate(204.013,-120.674)">
			<title>Sheet.57</title>
			<desc>float *</desc>
			<v:textBlock v:margins="rect(4,4,4,4)" v:tabSpace="42.5197"/>
			<v:textRect cx="49.6063" cy="433.175" width="99.22" height="20"/>
			<rect x="0" y="423.175" width="99.2126" height="20" class="st4"/>
			<text x="4" y="438.57" class="st13" v:langID="1033"><v:paragraph/><v:tabList/>float *</text>		</g>
		<g id="shape58-204" v:mID="58" v:groupContext="shape" transform="translate(207.414,-150.721)">
			<title>Sheet.58</title>
			<rect x="0" y="414.828" width="113.386" height="28.3465" rx="2.83465" ry="2.83465" class="st11"/>
		</g>
		<g id="shape59-208" v:mID="59" v:groupContext="shape" transform="translate(204.013,-177.367)">
			<title>Sheet.59</title>
			<desc>Person *</desc>
			<v:textBlock v:margins="rect(4,4,4,4)" v:tabSpace="42.5197"/>
			<v:textRect cx="49.6063" cy="433.175" width="99.22" height="20"/>
			<rect x="0" y="423.175" width="99.2126" height="20" class="st4"/>
			<text x="4" y="438.57" class="st13" v:langID="1033"><v:paragraph/><v:tabList/>Person *</text>		</g>
		<g id="shape60-212" v:mID="60" v:groupContext="shape" transform="translate(207.414,721.455) rotate(180)">
			<title>Sheet.60</title>
			<path d="M0 443.17 L63.83 443.17" class="st14"/>
		</g>
		<g id="shape61-217" v:mID="61" v:groupContext="shape" transform="translate(207.414,778.148) rotate(180)">
			<title>Sheet.61</title>
			<path d="M0 443.17 L63.83 443.17" class="st14"/>
		</g>
		<g id="shape63-222" v:mID="63" v:groupContext="shape" transform="translate(207.414,834.841) rotate(180)">
			<title>Sheet.63</title>
			<path d="M0 443.17 L63.83 443.17" class="st14"/>
		</g>
		<g id="shape65-227" v:mID="65" v:groupContext="shape" transform="translate(391.666,-207.414)">
			<title>Sheet.65</title>
			<rect x="0" y="414.828" width="28.3465" height="28.3465" rx="2.83465" ry="2.83465" class="st15"/>
		</g>
		<g id="shape66-232" v:mID="66" v:groupContext="shape" transform="translate(363.32,-207.414)">
			<title>Sheet.66</title>
			<rect x="0" y="414.828" width="28.3465" height="28.3465" rx="2.83465" ry="2.83465" class="st15"/>
		</g>
		<g id="shape67-236" v:mID="67" v:groupContext="shape" transform="translate(448.359,-207.414)">
			<title>Sheet.67</title>
			<rect x="0" y="414.828" width="28.3465" height="28.3465" rx="2.83465" ry="2.83465" class="st15"/>
		</g>
		<g id="shape68-240" v:mID="68" v:groupContext="shape" transform="translate(420.013,-207.414)">
			<title>Sheet.68</title>
			<rect x="0" y="414.828" width="28.3465" height="28.3465" rx="2.83465" ry="2.83465" class="st15"/>
		</g>
		<g id="shape69-244" v:mID="69" v:groupContext="shape" transform="translate(391.666,-179.068)">
			<title>Sheet.69</title>
			<rect x="0" y="414.828" width="28.3465" height="28.3465" rx="2.83465" ry="2.83465" class="st15"/>
		</g>
		<g id="shape70-248" v:mID="70" v:groupContext="shape" transform="translate(363.32,-179.068)">
			<title>Sheet.70</title>
			<rect x="0" y="414.828" width="28.3465" height="28.3465" rx="2.83465" ry="2.83465" class="st15"/>
		</g>
		<g id="shape71-252" v:mID="71" v:groupContext="shape" transform="translate(448.359,-179.068)">
			<title>Sheet.71</title>
			<rect x="0" y="414.828" width="28.3465" height="28.3465" rx="2.83465" ry="2.83465" class="st15"/>
		</g>
		<g id="shape72-256" v:mID="72" v:groupContext="shape" transform="translate(420.013,-179.068)">
			<title>Sheet.72</title>
			<rect x="0" y="414.828" width="28.3465" height="28.3465" rx="2.83465" ry="2.83465" class="st15"/>
		</g>
		<g id="shape73-260" v:mID="73" v:groupContext="shape" transform="translate(391.666,-150.721)">
			<title>Sheet.73</title>
			<rect x="0" y="414.828" width="28.3465" height="28.3465" rx="2.83465" ry="2.83465" class="st16"/>
		</g>
		<g id="shape74-265" v:mID="74" v:groupContext="shape" transform="translate(363.32,-150.721)">
			<title>Sheet.74</title>
			<rect x="0" y="414.828" width="28.3465" height="28.3465" rx="2.83465" ry="2.83465" class="st16"/>
		</g>
		<g id="shape75-269" v:mID="75" v:groupContext="shape" transform="translate(448.359,-150.721)">
			<title>Sheet.75</title>
			<rect x="0" y="414.828" width="28.3465" height="28.3465" rx="2.83465" ry="2.83465" class="st16"/>
		</g>
		<g id="shape76-273" v:mID="76" v:groupContext="shape" transform="translate(420.013,-150.721)">
			<title>Sheet.76</title>
			<rect x="0" y="414.828" width="28.3465" height="28.3465" rx="2.83465" ry="2.83465" class="st16"/>
		</g>
		<g id="shape77-277" v:mID="77" v:groupContext="shape" transform="translate(391.666,-122.375)">
			<title>Sheet.77</title>
			<rect x="0" y="414.828" width="28.3465" height="28.3465" rx="2.83465" ry="2.83465" class="st15"/>
		</g>
		<g id="shape78-281" v:mID="78" v:groupContext="shape" transform="translate(363.32,-122.375)">
			<title>Sheet.78</title>
			<rect x="0" y="414.828" width="28.3465" height="28.3465" rx="2.83465" ry="2.83465" class="st15"/>
		</g>
		<g id="shape79-285" v:mID="79" v:groupContext="shape" transform="translate(448.359,-122.375)">
			<title>Sheet.79</title>
			<rect x="0" y="414.828" width="28.3465" height="28.3465" rx="2.83465" ry="2.83465" class="st15"/>
		</g>
		<g id="shape80-289" v:mID="80" v:groupContext="shape" transform="translate(420.013,-122.375)">
			<title>Sheet.80</title>
			<rect x="0" y="414.828" width="28.3465" height="28.3465" rx="2.83465" ry="2.83465" class="st15"/>
		</g>
		<g id="shape81-293" v:mID="81" v:groupContext="shape" transform="translate(391.666,-94.0284)">
			<title>Sheet.81</title>
			<rect x="0" y="414.828" width="28.3465" height="28.3465" rx="2.83465" ry="2.83465" class="st16"/>
		</g>
		<g id="shape82-297" v:mID="82" v:groupContext="shape" transform="translate(363.32,-94.0284)">
			<title>Sheet.82</title>
			<rect x="0" y="414.828" width="28.3465" height="28.3465" rx="2.83465" ry="2.83465" class="st16"/>
		</g>
		<g id="shape83-301" v:mID="83" v:groupContext="shape" transform="translate(448.359,-94.0284)">
			<title>Sheet.83</title>
			<rect x="0" y="414.828" width="28.3465" height="28.3465" rx="2.83465" ry="2.83465" class="st16"/>
		</g>
		<g id="shape84-305" v:mID="84" v:groupContext="shape" transform="translate(420.013,-94.0284)">
			<title>Sheet.84</title>
			<rect x="0" y="414.828" width="28.3465" height="28.3465" rx="2.83465" ry="2.83465" class="st16"/>
		</g>
		<g id="shape85-309" v:mID="85" v:groupContext="shape" transform="translate(391.666,-65.6819)">
			<title>Sheet.85</title>
			<rect x="0" y="414.828" width="28.3465" height="28.3465" rx="2.83465" ry="2.83465" class="st15"/>
		</g>
		<g id="shape86-313" v:mID="86" v:groupContext="shape" transform="translate(363.32,-65.6819)">
			<title>Sheet.86</title>
			<rect x="0" y="414.828" width="28.3465" height="28.3465" rx="2.83465" ry="2.83465" class="st15"/>
		</g>
		<g id="shape87-317" v:mID="87" v:groupContext="shape" transform="translate(448.359,-65.6819)">
			<title>Sheet.87</title>
			<rect x="0" y="414.828" width="28.3465" height="28.3465" rx="2.83465" ry="2.83465" class="st15"/>
		</g>
		<g id="shape88-321" v:mID="88" v:groupContext="shape" transform="translate(420.013,-65.6819)">
			<title>Sheet.88</title>
			<rect x="0" y="414.828" width="28.3465" height="28.3465" rx="2.83465" ry="2.83465" class="st15"/>
		</g>
		<g id="shape89-325" v:mID="89" v:groupContext="shape" transform="translate(391.666,-37.3355)">
			<title>Sheet.89</title>
			<rect x="0" y="414.828" width="28.3465" height="28.3465" rx="2.83465" ry="2.83465" class="st16"/>
		</g>
		<g id="shape90-329" v:mID="90" v:groupContext="shape" transform="translate(363.32,-37.3355)">
			<title>Sheet.90</title>
			<rect x="0" y="414.828" width="28.3465" height="28.3465" rx="2.83465" ry="2.83465" class="st16"/>
		</g>
		<g id="shape91-333" v:mID="91" v:groupContext="shape" transform="translate(448.359,-37.3355)">
			<title>Sheet.91</title>
			<rect x="0" y="414.828" width="28.3465" height="28.3465" rx="2.83465" ry="2.83465" class="st16"/>
		</g>
		<g id="shape92-337" v:mID="92" v:groupContext="shape" transform="translate(420.013,-37.3355)">
			<title>Sheet.92</title>
			<rect x="0" y="414.828" width="28.3465" height="28.3465" rx="2.83465" ry="2.83465" class="st16"/>
		</g>
		<g id="shape97-341" v:mID="97" v:groupContext="shape" transform="translate(547.572,-37.3355)">
			<title>Sheet.97</title>
			<rect x="0" y="414.828" width="113.386" height="28.3465" rx="2.83465" ry="2.83465" class="st17"/>
		</g>
		<g id="shape98-346" v:mID="98" v:groupContext="shape" transform="translate(544.17,-63.9811)">
			<title>Sheet.98</title>
			<desc>char **</desc>
			<v:textBlock v:margins="rect(4,4,4,4)" v:tabSpace="42.5197"/>
			<v:textRect cx="49.6063" cy="433.175" width="99.22" height="20"/>
			<rect x="0" y="423.175" width="99.2126" height="20" class="st4"/>
			<text x="4" y="438.57" class="st18" v:langID="1033"><v:paragraph/><v:tabList/>char **</text>		</g>
		<g id="shape99-350" v:mID="99" v:groupContext="shape" transform="translate(547.572,-94.0284)">
			<title>Sheet.99</title>
			<rect x="0" y="414.828" width="113.386" height="28.3465" rx="2.83465" ry="2.83465" class="st17"/>
		</g>
		<g id="shape100-354" v:mID="100" v:groupContext="shape" transform="translate(544.17,-120.674)">
			<title>Sheet.100</title>
			<desc>float **</desc>
			<v:textBlock v:margins="rect(4,4,4,4)" v:tabSpace="42.5197"/>
			<v:textRect cx="49.6063" cy="433.175" width="99.22" height="20"/>
			<rect x="0" y="423.175" width="99.2126" height="20" class="st4"/>
			<text x="4" y="438.57" class="st18" v:langID="1033"><v:paragraph/><v:tabList/>float **</text>		</g>
		<g id="shape101-358" v:mID="101" v:groupContext="shape" transform="translate(547.572,-150.721)">
			<title>Sheet.101</title>
			<rect x="0" y="414.828" width="113.386" height="28.3465" rx="2.83465" ry="2.83465" class="st17"/>
		</g>
		<g id="shape102-362" v:mID="102" v:groupContext="shape" transform="translate(544.17,-177.367)">
			<title>Sheet.102</title>
			<desc>Person **</desc>
			<v:textBlock v:margins="rect(4,4,4,4)" v:tabSpace="42.5197"/>
			<v:textRect cx="58.3937" cy="433.175" width="116.79" height="20"/>
			<rect x="0" y="423.175" width="116.787" height="20" class="st4"/>
			<text x="4" y="438.57" class="st18" v:langID="1033"><v:paragraph/><v:tabList/>Person **</text>		</g>
		<g id="shape103-366" v:mID="103" v:groupContext="shape" transform="translate(547.572,721.455) rotate(180)">
			<title>Sheet.103</title>
			<path d="M0 443.17 L63.83 443.17" class="st14"/>
		</g>
		<g id="shape104-371" v:mID="104" v:groupContext="shape" transform="translate(547.572,778.148) rotate(180)">
			<title>Sheet.104</title>
			<path d="M0 443.17 L63.83 443.17" class="st14"/>
		</g>
		<g id="shape105-376" v:mID="105" v:groupContext="shape" transform="translate(547.572,834.841) rotate(180)">
			<title>Sheet.105</title>
			<path d="M0 443.17 L63.83 443.17" class="st14"/>
		</g>
	</g>
</svg>
